<svg xmlns="http://www.w3.org/2000/svg" enable-background="new 0 0 500 500" viewBox="0 0 500 500"><path fill="none" stroke="#333" stroke-linecap="round" stroke-linejoin="round" stroke-miterlimit="10" stroke-width="15" d="
					M288.57,23.869l16.937,152.64c0,0-23.732,15.79-58.471,15.79s-58.471-15.79-58.471-15.79l16.937-152.64"/><ellipse cx="247.036" cy="23.869" fill="none" stroke="#333" stroke-linecap="round" stroke-linejoin="round" stroke-miterlimit="10" stroke-width="15" rx="41.055" ry="7.369"/><path fill="none" stroke="#333" stroke-linecap="round" stroke-linejoin="round" stroke-miterlimit="10" stroke-width="15" d="M305.507 172.645c64.813 3.193 111.012 11.495 111.012 21.233 0 12.5-76.116 22.633-170.01 22.633S76.5 206.378 76.5 193.878c0-9.791 46.7-18.13 112.065-21.284M305.987 240.723l-6.407 48.571c-1.913 14.503-10.479 27.285-23.166 34.569l-6.006 3.448c-14.473 8.309-32.269 8.309-46.742 0l-6.006-3.448c-12.687-7.284-21.253-20.066-23.166-34.569l-6.407-48.571"/><polyline fill="none" stroke="#333" stroke-linecap="round" stroke-linejoin="round" stroke-miterlimit="10" stroke-width="15" points="281.775 380.731 247.036 352.308 260.721 486"/><polyline fill="none" stroke="#333" stroke-linecap="round" stroke-linejoin="round" stroke-miterlimit="10" stroke-width="15" points="212.297 380.731 247.036 352.308 233.351 486"/><path fill="none" stroke="#333" stroke-linecap="round" stroke-linejoin="round" stroke-miterlimit="10" stroke-width="15" d="
			M195.5,333.5l-96.725,39.569c-8.335,3.41-14.52,10.621-16.622,19.377L61.5,478.5"/><line x1="98.5" x2="128.5" y1="373.5" y2="478.5" fill="none" stroke="#333" stroke-linecap="round" stroke-linejoin="round" stroke-miterlimit="10" stroke-width="15"/><g><path fill="none" stroke="#333" stroke-linecap="round" stroke-linejoin="round" stroke-miterlimit="10" stroke-width="15" d="
			M303.5,333.5l96.725,39.569c8.335,3.41,14.52,10.621,16.622,19.377L437.5,478.5"/><line x1="400.5" x2="370.5" y1="373.5" y2="478.5" fill="none" stroke="#333" stroke-linecap="round" stroke-linejoin="round" stroke-miterlimit="10" stroke-width="15"/></g></svg>