<svg xmlns="http://www.w3.org/2000/svg" enable-background="new 0 0 64 64" viewBox="0 0 64 64"><path fill="#1D1D1D" d="M59,64c-0.55273,0-1-0.44775-1-1V2H32v61c0,0.55225-0.44727,1-1,1s-1-0.44775-1-1V1    c0-0.55225,0.44727-1,1-1h28c0.55273,0,1,0.44775,1,1v62C60,63.55225,59.55273,64,59,64z"/><path fill="#1D1D1D" d="M31,64c-0.55273,0-1-0.44775-1-1V21H6v42c0,0.55225-0.44727,1-1,1s-1-0.44775-1-1V20    c0-0.55225,0.44727-1,1-1h26c0.55273,0,1,0.44775,1,1v43C32,63.55225,31.55273,64,31,64z"/><path fill="#1D1D1D" d="M63,64H1c-0.55273,0-1-0.44775-1-1s0.44727-1,1-1h62c0.55273,0,1,0.44775,1,1S63.55273,64,63,64z"/><path fill="#1D1D1D" d="M55 64c-.55273 0-1-.44775-1-1V1c0-.55225.44727-1 1-1s1 .44775 1 1v62C56 63.55225 55.55273 64 55 64zM35 64c-.55273 0-1-.44775-1-1V1c0-.55225.44727-1 1-1s1 .44775 1 1v62C36 63.55225 35.55273 64 35 64zM42 50c-.55273 0-1-.44775-1-1V1c0-.55225.44727-1 1-1s1 .44775 1 1v48C43 49.55225 42.55273 50 42 50zM48 50c-.55273 0-1-.44775-1-1V1c0-.55225.44727-1 1-1s1 .44775 1 1v48C49 49.55225 48.55273 50 48 50z"/><path fill="#1D1D1D" d="M59 10H31c-.55273 0-1-.44775-1-1s.44727-1 1-1h28c.55273 0 1 .44775 1 1S59.55273 10 59 10zM59 18H31c-.55273 0-1-.44775-1-1s.44727-1 1-1h28c.55273 0 1 .44775 1 1S59.55273 18 59 18zM59 26H31c-.55273 0-1-.44775-1-1s.44727-1 1-1h28c.55273 0 1 .44775 1 1S59.55273 26 59 26zM59 34H31c-.55273 0-1-.44775-1-1s.44727-1 1-1h28c.55273 0 1 .44775 1 1S59.55273 34 59 34zM59 42H31c-.55273 0-1-.44775-1-1s.44727-1 1-1h28c.55273 0 1 .44775 1 1S59.55273 42 59 42zM59 50H31c-.55273 0-1-.44775-1-1s.44727-1 1-1h28c.55273 0 1 .44775 1 1S59.55273 50 59 50zM51 64H39c-.55273 0-1-.44775-1-1v-7c0-.55225.44727-1 1-1h12c.55273 0 1 .44775 1 1v7C52 63.55225 51.55273 64 51 64zM40 62h10v-5H40V62zM24 64H12c-.55273 0-1-.44775-1-1v-7c0-.55225.44727-1 1-1h12c.55273 0 1 .44775 1 1v7C25 63.55225 24.55273 64 24 64zM13 62h10v-5H13V62zM13 50c-.55273 0-1-.44775-1-1V25c0-.55225.44727-1 1-1s1 .44775 1 1v24C14 49.55225 13.55273 50 13 50zM23 50c-.55273 0-1-.44775-1-1V25c0-.55225.44727-1 1-1s1 .44775 1 1v24C24 49.55225 23.55273 50 23 50z"/><path fill="#1D1D1D" d="M13 26h-3c-.55273 0-1-.44775-1-1s.44727-1 1-1h3c.55273 0 1 .44775 1 1S13.55273 26 13 26zM13 50h-3c-.55273 0-1-.44775-1-1s.44727-1 1-1h3c.55273 0 1 .44775 1 1S13.55273 50 13 50zM26 26h-3c-.55273 0-1-.44775-1-1s.44727-1 1-1h3c.55273 0 1 .44775 1 1S26.55273 26 26 26zM13 32h-3c-.55273 0-1-.44775-1-1s.44727-1 1-1h3c.55273 0 1 .44775 1 1S13.55273 32 13 32zM13 38h-3c-.55273 0-1-.44775-1-1s.44727-1 1-1h3c.55273 0 1 .44775 1 1S13.55273 38 13 38zM13 44h-3c-.55273 0-1-.44775-1-1s.44727-1 1-1h3c.55273 0 1 .44775 1 1S13.55273 44 13 44zM23 29H13c-.55273 0-1-.44775-1-1s.44727-1 1-1h10c.55273 0 1 .44775 1 1S23.55273 29 23 29zM26 50h-3c-.55273 0-1-.44775-1-1s.44727-1 1-1h3c.55273 0 1 .44775 1 1S26.55273 50 26 50zM26 32h-3c-.55273 0-1-.44775-1-1s.44727-1 1-1h3c.55273 0 1 .44775 1 1S26.55273 32 26 32zM26 38h-3c-.55273 0-1-.44775-1-1s.44727-1 1-1h3c.55273 0 1 .44775 1 1S26.55273 38 26 38zM26 44h-3c-.55273 0-1-.44775-1-1s.44727-1 1-1h3c.55273 0 1 .44775 1 1S26.55273 44 26 44zM23 35H13c-.55273 0-1-.44775-1-1s.44727-1 1-1h10c.55273 0 1 .44775 1 1S23.55273 35 23 35zM23 41H13c-.55273 0-1-.44775-1-1s.44727-1 1-1h10c.55273 0 1 .44775 1 1S23.55273 41 23 41zM23 47H13c-.55273 0-1-.44775-1-1s.44727-1 1-1h10c.55273 0 1 .44775 1 1S23.55273 47 23 47z"/></svg>