<svg xmlns="http://www.w3.org/2000/svg" viewBox="0 0 50 50"><path fill="none" stroke="#000" stroke-linecap="round" stroke-linejoin="round" stroke-miterlimit="10" stroke-width="1.5" d="M45.7 22.7H4.3c-.6 0-1-.4-1-1v-2.6c0-.6.4-1 1-1h41.3c.6 0 1 .4 1 1v2.6c.1.6-.4 1-.9 1zM4.2 48.3v-3.6h41.6v3.6"/><path fill="none" stroke="#000" stroke-linecap="round" stroke-linejoin="round" stroke-miterlimit="10" stroke-width="1.5" d="M18.6 27.9h12.7v16.8H18.6z"/><path fill="none" stroke="#000" stroke-linecap="round" stroke-linejoin="round" stroke-miterlimit="10" stroke-width="1.5" d="m18.6 27.9 4.4 3.5v13.3M31.4 27.9 27 31.4v13.3M1.8 48.3h46.5M44.5 44.7l-.3-3.7H36l-.3 3.7M35.7 22.7l.3 3.7h8.2l.3-3.7M42.1 41V26.4M38.1 41V26.4M14.3 44.7 14 41H5.8l-.3 3.7M5.5 22.7l.3 3.7H14l.3-3.7M11.9 41V26.4M7.9 41V26.4M14.8 5.9v2.7c0 .9.7 1.6 1.6 1.6h0c.9 0 1.6-.7 1.6-1.6V5.8m14.1.1v2.7c0 .9.7 1.6 1.6 1.6h0c.9 0 1.6-.7 1.6-1.6V5.8M29.1 10.2h-2.6V5.8h2.6M26.5 8h2M9 10.2V5.8l1.4 2.6 1.5-2.6v4.4M38.1 10.2V5.8l1.5 2.6L41 5.8v4.4M23.6 5.8h-1.5c-.6 0-1.1.5-1.1 1.1h0c0 .6.5 1.1 1.1 1.1h.4c.6 0 1.1.5 1.1 1.1h0c0 .6-.5 1.1-1.1 1.1H21"/><path fill="none" stroke="#000" stroke-linecap="round" stroke-linejoin="round" stroke-miterlimit="10" stroke-width="1.5" d="M42.3 14.2H7.7c-.9 0-1.6-.7-1.6-1.6V3.4c0-.9.7-1.6 1.6-1.6h34.6c.9 0 1.6.7 1.6 1.6v9.2c.1.9-.7 1.6-1.6 1.6zM41.8 14.2v3.9M8.2 18.1v-3.9"/></svg>