<svg xmlns="http://www.w3.org/2000/svg" data-name="Layer 1" viewBox="0 0 128 128"><path d="M7.446 19.8h.166a7.728 7.728 0 0 0 .966-.06 7.65 7.65 0 0 0 10.85 0 7.749 7.749 0 0 0 .962.06h.166a7.6 7.6 0 0 0 7.439-7.257 7.487 7.487 0 0 0-2.1-5.536A7.669 7.669 0 0 0 21.052 4.7 7.431 7.431 0 0 0 16.583.436 7.947 7.947 0 0 0 14 0a7.623 7.623 0 0 0-7.045 4.7 7.669 7.669 0 0 0-4.849 2.309 7.487 7.487 0 0 0-2.1 5.536 7.6 7.6 0 0 0 7.44 7.255zm.166-11.133c.779 0 1.377.084 1.815.084.667 0 .963-.2.963-1.182A3.59 3.59 0 0 1 14 4a3.954 3.954 0 0 1 1.285.219 3.511 3.511 0 0 1 2.326 3.35c0 .986.3 1.181.963 1.181.438 0 1.036-.084 1.815-.084a3.568 3.568 0 1 1 .08 7.136h-.08a3.632 3.632 0 0 1-1.545-.342 1.254 1.254 0 0 0-.533-.12 1.183 1.183 0 0 0-1.068.66 3.627 3.627 0 0 1-6.444.078 1.322 1.322 0 0 0-1.177-.692 1.367 1.367 0 0 0-.549.115 3.634 3.634 0 0 1-1.461.3h-.08a3.568 3.568 0 1 1 .08-7.136zM66.1 28.116h.154a7.534 7.534 0 0 0 .776-.04 7.4 7.4 0 0 0 9.952 0 7.567 7.567 0 0 0 .772.039h.153a7.171 7.171 0 0 0 7.091-6.76 6.905 6.905 0 0 0-1.941-5.112 7.352 7.352 0 0 0-4.481-2.2 7.023 7.023 0 0 0-4.174-3.66A7.715 7.715 0 0 0 72 10a7.319 7.319 0 0 0-5.04 1.983 7.058 7.058 0 0 0-1.513 2.061 7.352 7.352 0 0 0-4.5 2.2 6.906 6.906 0 0 0-1.941 5.112 7.171 7.171 0 0 0 7.094 6.76zM66.25 18c.7 0 1.239.072 1.633.072.6 0 .867-.168.867-1.013A3.159 3.159 0 0 1 72 14a3.719 3.719 0 0 1 1.157.188 3.019 3.019 0 0 1 2.093 2.871c0 .845.266 1.013.867 1.013.394 0 .932-.072 1.633-.072A3.149 3.149 0 0 1 81 21.185a3.191 3.191 0 0 1-3.175 2.932h-.075a3.406 3.406 0 0 1-1.391-.294 1.175 1.175 0 0 0-.479-.1 1.072 1.072 0 0 0-.962.563 3.342 3.342 0 0 1-5.8.067 1.2 1.2 0 0 0-1.059-.593 1.283 1.283 0 0 0-.494.1 3.411 3.411 0 0 1-1.315.261h-.072A3.191 3.191 0 0 1 63 21.185 3.149 3.149 0 0 1 66.25 18z"/><path d="M2 73.723a2.007 2.007 0 0 0 .69-.123 74.864 74.864 0 0 1 21.435-4.473c30.081-1.739 57.427 14.564 68.022 40.626a2 2 0 1 0 3.705-1.506c-7.961-19.585-24.8-33.984-45.243-40.058a66.834 66.834 0 0 1 14.773-10.847 1.991 1.991 0 0 0 .774-.413c17.549-9.218 39.024-10.72 59.154-3.329a2 2 0 1 0 1.379-3.756A80.707 80.707 0 0 0 109 45.534V38h3.408a4.55 4.55 0 0 0 4.078-2.561 4.915 4.915 0 0 0-.4-5.039 4.893 4.893 0 0 0-.786-4.7l-.228-.283a4.872 4.872 0 0 0-.454-4.5l-.186-.282a4.9 4.9 0 0 0-.158-4.649l-3.352-5.714a4.519 4.519 0 0 0-7.848 0l-3.352 5.714a4.9 4.9 0 0 0-.158 4.649l-.186.282a4.872 4.872 0 0 0-.454 4.5l-.224.283a4.893 4.893 0 0 0-.78 4.695 4.915 4.915 0 0 0-.4 5.039A4.55 4.55 0 0 0 101.591 38H105v7.125a75.529 75.529 0 0 0-38.737 7.268 21.9 21.9 0 0 0-.987-2.94c.037-.017.075-.023.111-.042l6.162-3.272a2 2 0 1 0-1.877-3.533l-6.162 3.272c-.036.019-.065.045-.1.066a21.919 21.919 0 0 0-2.682-3.344c.027-.028.059-.049.085-.079l4.527-5.309a2 2 0 0 0-3.043-2.6l-4.527 5.31c-.027.031-.044.067-.068.1a21.973 21.973 0 0 0-4.349-2.4c.013-.036.038-.063.05-.1l2.056-6.674a2 2 0 1 0-3.822-1.178l-2.056 6.674c-.011.035-.012.07-.021.1a22.021 22.021 0 0 0-4.31-.466c0-.041.006-.081 0-.123l-.55-6.948a2 2 0 1 0-3.988.316l.552 6.953c0 .04.015.078.021.117a21.832 21.832 0 0 0-4.8 1.4c-.016-.035-.025-.072-.044-.107l-3.273-6.162A2 2 0 1 0 29.63 33.3l3.27 6.165c.019.035.048.061.068.094a22.089 22.089 0 0 0-3.343 2.692c-.03-.029-.054-.062-.086-.09l-5.309-4.527a2 2 0 0 0-2.6 3.043l5.309 4.527c.032.027.068.047.1.072a22.074 22.074 0 0 0-2.391 4.342c-.038-.014-.071-.034-.11-.046l-6.674-2.055a2 2 0 0 0-1.164 3.824l6.671 2.059c.037.011.074.008.111.017a21.846 21.846 0 0 0-.476 4.315c-.04 0-.079-.006-.119 0l-6.953.552a2 2 0 0 0 .156 3.994c.053 0 .106 0 .16-.006l6.953-.552c.041 0 .079-.016.119-.022a21.819 21.819 0 0 0 .892 3.432c-.108.006-.215.007-.323.013a78.861 78.861 0 0 0-22.58 4.709A2 2 0 0 0 2 73.723ZM101.591 34c-.52 0-.786-.789-.427-1.265l1.486-1.97c.359-.476.093-1.265-.427-1.265s-.791-.814-.413-1.283l2.079-2.578c.378-.469.116-1.283-.413-1.283h-.306c-.5 0-.774-.741-.453-1.228l1.773-2.687c.321-.487.048-1.228-.453-1.228h-.391c-.485 0-.763-.7-.474-1.195l3.352-5.714a.523.523 0 0 1 .948 0l3.352 5.714c.29.494.012 1.195-.474 1.195h-.391c-.5 0-.774.741-.453 1.228l1.773 2.687c.321.487.048 1.228-.453 1.228h-.306c-.529 0-.791.814-.413 1.283l2.079 2.578c.378.469.116 1.283-.413 1.283s-.786.789-.427 1.265l1.486 1.97c.359.476.093 1.265-.427 1.265Zm-58.016 6.031a17.96 17.96 0 0 1 19.031 14.26 70.749 70.749 0 0 0-16.458 12.718 77.75 77.75 0 0 0-17.7-2 17.967 17.967 0 0 1 15.129-24.98Z"/><path d="M126 124h-9v-10h6.113a4.835 4.835 0 0 0 4.4-2.831 5.141 5.141 0 0 0-.679-5.448l-.383-.462q.079-.149.149-.3a5.125 5.125 0 0 0-.822-5.5l-.876-.988q.09-.15.17-.307a5.1 5.1 0 0 0-.41-5.34l-.723-1a5.01 5.01 0 0 0 .352-.556 5.127 5.127 0 0 0-.19-5.236l-5.028-7.792a4.817 4.817 0 0 0-8.143 0l-5.03 7.794a5.127 5.127 0 0 0-.19 5.236 5 5 0 0 0 .352.556l-.723 1a5.1 5.1 0 0 0-.41 5.34q.08.157.17.307l-.876.988a5.124 5.124 0 0 0-.822 5.5q.07.155.149.3l-.383.462a5.141 5.141 0 0 0-.68 5.448 4.835 4.835 0 0 0 4.4 2.831H113v10H31V114h6.113a4.835 4.835 0 0 0 4.4-2.831 5.141 5.141 0 0 0-.679-5.448l-.383-.462q.079-.149.149-.3a5.125 5.125 0 0 0-.822-5.5l-.878-.989q.09-.15.17-.307a5.1 5.1 0 0 0-.41-5.34l-.723-1a5.01 5.01 0 0 0 .352-.556 5.127 5.127 0 0 0-.19-5.236l-5.028-7.792a4.817 4.817 0 0 0-8.143 0L19.9 86.034a5.127 5.127 0 0 0-.19 5.236 5 5 0 0 0 .352.556l-.723 1a5.1 5.1 0 0 0-.41 5.34q.08.157.17.307l-.876.988a5.124 5.124 0 0 0-.822 5.5q.07.155.149.3l-.383.462a5.141 5.141 0 0 0-.68 5.448 4.835 4.835 0 0 0 4.4 2.831H27v10H2a2 2 0 1 0 0 4h124a2 2 0 1 0 0-4ZM20.888 110a1.045 1.045 0 0 1-.64-1.725l2.229-2.687a1.045 1.045 0 0 0-.64-1.726 1.047 1.047 0 0 1-.619-1.75l3.118-3.512a1.047 1.047 0 0 0-.619-1.75h-.459a1.042 1.042 0 0 1-.679-1.675l2.66-3.665a1.041 1.041 0 0 0-.679-1.675h-.586a1.038 1.038 0 0 1-.711-1.629l5.028-7.792a.819.819 0 0 1 1.421 0l5.027 7.786a1.038 1.038 0 0 1-.711 1.629h-.586a1.041 1.041 0 0 0-.679 1.675l2.66 3.665a1.042 1.042 0 0 1-.679 1.675h-.459a1.047 1.047 0 0 0-.619 1.75l3.119 3.515a1.047 1.047 0 0 1-.619 1.75 1.045 1.045 0 0 0-.64 1.726l2.229 2.687a1.045 1.045 0 0 1-.64 1.725Zm86 0a1.045 1.045 0 0 1-.64-1.725l2.229-2.687a1.045 1.045 0 0 0-.64-1.726 1.047 1.047 0 0 1-.619-1.75l3.119-3.515a1.047 1.047 0 0 0-.619-1.75h-.459a1.041 1.041 0 0 1-.679-1.675l2.66-3.665a1.041 1.041 0 0 0-.679-1.675h-.586a1.038 1.038 0 0 1-.711-1.629l5.028-7.792a.819.819 0 0 1 1.421 0l5.027 7.792a1.038 1.038 0 0 1-.711 1.629h-.586a1.041 1.041 0 0 0-.679 1.675l2.66 3.665a1.042 1.042 0 0 1-.679 1.675h-.459a1.047 1.047 0 0 0-.619 1.75l3.119 3.515a1.047 1.047 0 0 1-.619 1.75 1.045 1.045 0 0 0-.64 1.726l2.229 2.687a1.045 1.045 0 0 1-.64 1.725Z"/></svg>