<svg xmlns="http://www.w3.org/2000/svg" viewBox="0 0 8.467 8.467"><g color="#000" font-family="sans-serif" font-weight="400" paint-order="fill markers stroke"><path style="line-height:normal;font-variant-ligatures:normal;font-variant-position:normal;font-variant-caps:normal;font-variant-numeric:normal;font-variant-alternates:normal;font-variant-east-asian:normal;font-feature-settings:normal;font-variation-settings:normal;text-indent:0;text-align:start;text-decoration-line:none;text-decoration-style:solid;text-decoration-color:#000;text-transform:none;text-orientation:mixed;white-space:normal;shape-padding:0;shape-margin:0;inline-size:0;isolation:auto;mix-blend-mode:normal;solid-color:#000;solid-opacity:1" d="M35.841 35.075c.435 0 .267.53.116.53h-1.349a.259.259 0 0 0-.263.265v2.587c0 .147-.529.146-.53 0V35.87c0-.435.358-.795.793-.795zm2.794.737c-.435 0-.267.53-.116.53h1.398c.151 0 .264.114.264.265v1.85c0 .147.529.146.53 0v-1.85a.798.798 0 0 0-.794-.795z" overflow="visible" transform="translate(-33.022 -30.617)"/><path style="line-height:normal;font-variant-ligatures:normal;font-variant-position:normal;font-variant-caps:normal;font-variant-numeric:normal;font-variant-alternates:normal;font-variant-east-asian:normal;font-feature-settings:normal;font-variation-settings:normal;text-indent:0;text-align:start;text-decoration-line:none;text-decoration-style:solid;text-decoration-color:#000;text-transform:none;text-orientation:mixed;white-space:normal;shape-padding:0;shape-margin:0;inline-size:0;isolation:auto;mix-blend-mode:normal;solid-color:#000;solid-opacity:1" d="M37.995 34.223a.8.8 0 0 1 .795.795v3.45c0 .145-.529.145-.53 0v-3.45a.26.26 0 0 0-.265-.265h-1.482a.259.259 0 0 0-.263.265v3.44c-.001.146-.53.145-.53 0v-3.44c0-.435.358-.795.793-.795zm-.742-3.342a.437.437 0 0 0-.315.16c-.093.089-.286.407-.352.484-.088.034-.44.111-.57.179-.307.149-.325.388-.202.611.044.082.35.502.346.479 0 .011-.013.508-.002.603.039.328.265.43.52.382.093-.018.426-.138.487-.16.06-.02.088-.024.175.006.077.035.393.147.486.164.255.048.475-.067.514-.396.011-.094-.006-.453-.006-.58.024-.03.32-.415.364-.497.122-.223.1-.463-.208-.612-.13-.068-.482-.145-.57-.179-.065-.077-.258-.395-.351-.483a.437.437 0 0 0-.316-.16zm.051.674c.044.065.184.311.307.4.135.096.406.155.482.177.031.008.05.066.029.093-.048.062-.244.277-.288.414-.048.15-.022.428-.018.506.002.055-.033.081-.074.066-.074-.026-.341-.146-.489-.146-.148-.004-.417.108-.491.134-.032.012-.082-.003-.08-.055.003-.078.024-.396-.012-.507-.035-.11-.235-.357-.283-.42-.021-.026-.026-.077.03-.093.075-.02.384-.101.478-.17.095-.067.27-.333.313-.398.023-.038.072-.044.096 0z" overflow="visible" transform="translate(-33.022 -30.617)"/><path style="line-height:normal;font-variant-ligatures:normal;font-variant-position:normal;font-variant-caps:normal;font-variant-numeric:normal;font-variant-alternates:normal;font-variant-east-asian:normal;font-feature-settings:normal;font-variation-settings:normal;text-indent:0;text-align:start;text-decoration-line:none;text-decoration-style:solid;text-decoration-color:#000;text-transform:none;text-orientation:mixed;white-space:normal;shape-padding:0;shape-margin:0;inline-size:0;isolation:auto;mix-blend-mode:normal;solid-color:#000;solid-opacity:1" d="M37.238 35.573a.265.265 0 0 0-.213.131l-.164.287a.265.265 0 0 0 .13.377v.73a.265.265 0 1 0 .529 0v-1.261a.265.265 0 0 0-.282-.264zm-3.687-3.37a.265.265 0 0 0 0 .53h.793a.265.265 0 1 0 0-.53zm1.32 1.201a.265.265 0 0 0-.148.047l-.793.547a.265.265 0 0 0-.069.367.265.265 0 0 0 .37.069l.792-.547a.265.265 0 0 0 .069-.367.265.265 0 0 0-.22-.116zm-1.078-2.521a.265.265 0 0 0-.234.199.265.265 0 0 0 .193.32l1.057.266a.265.265 0 0 0 .322-.193.265.265 0 0 0-.193-.32l-1.06-.266a.265.265 0 0 0-.085-.006zm7.164 1.32a.265.265 0 0 1 0 .53h-.79a.265.265 0 1 1 0-.53zm-1.32 1.201a.265.265 0 0 1 .148.047l.793.547a.265.265 0 0 1 .068.367.265.265 0 0 1-.37.069l-.792-.547a.265.265 0 0 1-.068-.367.265.265 0 0 1 .22-.116zm1.077-2.521a.265.265 0 0 1 .235.199.265.265 0 0 1-.194.32l-1.056.266a.265.265 0 0 1-.323-.193.265.265 0 0 1 .194-.32l1.058-.266a.265.265 0 0 1 .086-.006zM33.55 38.29a.265.265 0 0 0-.264.265.265.265 0 0 0 .264.264h7.408a.265.265 0 0 0 .266-.264.265.265 0 0 0-.266-.265z" overflow="visible" transform="translate(-33.022 -30.617)"/></g></svg>