<svg xmlns="http://www.w3.org/2000/svg" viewBox="0 0 32 32"><path fill="none" stroke="#000" stroke-linecap="round" stroke-linejoin="round" d="M-1732.323-243.809s.718-3.042 1.723-4.154c1.29-1.428 3.206-2.313 5.083-2.74 1.222-.278 2.578-.251 3.756.177 1.74.631 3.303 1.883 4.42 3.358.802 1.06 1.458 3.713 1.458 3.713l-12.507-.133z" transform="translate(1733.452 257.212)"/><path fill="none" stroke="#000" d="M-1707.221-251.587c.714.127 1.428.664 1.724 1.326.24.54.173 1.262-.133 1.768-.333.548-.994.992-1.635 1.016-.698.026-1.472-.389-1.856-.972-.317-.481-.298-1.172-.133-1.724.124-.414.44-.78.795-1.026.355-.247.812-.464 1.238-.388z" transform="translate(1733.452 257.212)"/><path fill="none" stroke="#000" stroke-linecap="round" stroke-linejoin="round" d="m-1707.404-254.304.01 1.06M-1707.373-245.773l.011 1.06M-1702.587-249.53l-1.06.012M-1711.119-249.498l-1.06.011M-1704.007-252.914l-.742.758M-1710.017-246.86l-.742.758M-1710.79-252.884l.758.742M-1704.735-246.874l.758.742M-1724.368-252.029c.141 5.331.507 11.334.353 15.777" transform="translate(1733.452 257.212)"/><path fill="none" stroke="#000" d="M-1727.594-243.638s.071-2.415.406-3.562c.366-1.253.74-2.81 1.72-3.516m2.468-.078c1.297.695 1.554 2.535 2 3.937.348 1.094.5 3.407.5 3.407" transform="translate(1733.452 257.212)"/><path fill="none" stroke="#000" stroke-linecap="round" stroke-linejoin="round" d="M-1729.097-239.257c1.455 2.196 3.86 4.272 5.79 6.408 6.47-.098 13.63-.46 18.075.221l1.988 4.508M-1723.175-232.76l-1.945 4.596" transform="translate(1733.452 257.212)"/></svg>