<svg xmlns="http://www.w3.org/2000/svg" viewBox="0 0 512 512"><path d="M329.849 415.085a7.5 7.5 0 1 0 10.607 0 7.5 7.5 0 0 0-10.607 0zm-145.722 10.606a7.5 7.5 0 1 0-10.607 0 7.5 7.5 0 0 0 10.607 0z"/><path d="m438.53 344.218-27.207-27.207a12.016 12.016 0 0 0-16.971 0L390 321.364c-24.95-25.909-17.527-89.986-20.964-111.46-3.311-20.687-61.946-89.131-70.3-131.723-5.881-29.989-31.923-31.369-41.745-5.514-9.857-25.948-35.886-24.361-41.745 5.514-8.356 42.6-66.99 111.035-70.3 131.723-3.435 21.463 3.989 85.549-20.964 111.46l-4.354-4.353a12.014 12.014 0 0 0-16.971 0l-27.211 27.207a12.016 12.016 0 0 0 0 16.971l92.886 92.885a11.994 11.994 0 0 0 16.97 0l27.208-27.207a12.016 12.016 0 0 0 0-16.971l-16.972-16.972c17.091-39.81 49.857-31.323 61.45-82.445 11.57 51.02 44.391 42.708 61.45 82.445L301.466 409.9a12.016 12.016 0 0 0 0 16.971l27.208 27.207a12.014 12.014 0 0 0 16.971 0l92.885-92.885a12.016 12.016 0 0 0 0-16.975ZM206.853 421.21l-27.208 27.207a4 4 0 0 1-5.656 0L81.1 355.532a4 4 0 0 1 0-5.657l27.207-27.207a4 4 0 0 1 5.656 0l92.886 92.885a4.006 4.006 0 0 1 .004 5.657Zm-17.368-34.338-59.852-59.852c27.747-28.671 19.845-94.845 23.208-115.852 2.818-17.6 61.653-87.608 70.252-131.447 5.643-28.775 29.9-20.84 29.9 18.015 0 28.143-20.522 55.83-25.466 62.09-23.992 1.8-7.622 32.04-31.734 88.173-2.112 4.915 5.275 7.988 7.351 3.157 23.784-55.372 9.9-83.409 26.356-83.409a23.52 23.52 0 0 1 23.493 23.493v76.431c-.005 93.772-40.769 70.849-63.508 119.201Zm67.5-264.809c5.273 16.806 14.524 31.05 20.021 38.579a31.613 31.613 0 0 0-20.021 15.251 31.615 31.615 0 0 0-20.021-15.251c5.5-7.529 14.75-21.773 20.024-38.579Zm4 145.608V191.24a23.52 23.52 0 0 1 23.493-23.493c16.449 0 2.637 28.19 26.356 83.409 2.069 4.817 9.468 1.77 7.351-3.157-24.1-56.111-7.752-86.373-31.736-88.173-4.948-6.254-25.464-33.892-25.464-62.09 0-38.864 24.248-46.8 29.895-18.015 8.6 43.861 67.428 113.81 70.252 131.447 3.365 21.019-4.54 87.181 23.208 115.852l-59.852 59.852c-22.751-48.384-63.5-25.414-63.5-119.201Zm171.885 87.861-92.886 92.885a4 4 0 0 1-5.656 0l-27.204-27.207a4 4 0 0 1 0-5.657l92.884-92.885a4.005 4.005 0 0 1 5.658 0l27.207 27.207a4.006 4.006 0 0 1 0 5.657Z"/></svg>