<svg xmlns="http://www.w3.org/2000/svg" viewBox="0 0 512 512"><path d="m369.037 249.123-54.716-17.144-18.743-42.912c1.192-7.353-.185-14.676-3.545-20.942l3.961-7.554c.145.001.285.021.431.021 22.523 0 40.782-18.259 40.782-40.783 0-22.523-18.259-40.782-40.782-40.782s-40.783 18.259-40.783 40.782c0 9.709 3.407 18.615 9.071 25.619l-2.775 5.296c-6.555.207-24.46 6.794-27.421 8.407l-55.25 30.093a19.245 19.245 0 0 0-8.96 7.413 19.327 19.327 0 0 0-2.847 6.871l-17.922 60.796c-3.006 10.197 2.824 20.901 13.022 23.908 10.197 3.006 20.901-2.824 23.908-13.021l16.17-54.856 16.622-9.053-15.984 49.557c-2.281 7.072-2.021 14.338.215 20.865L134.015 394.3c-6.819 11.115-3.336 25.654 7.779 32.475 11.115 6.818 25.654 3.336 32.475-7.779L241.782 309.6l29.741 34.539 5.361 64.375c1.082 12.995 12.495 22.653 25.49 21.57 12.996-1.082 22.653-12.494 21.571-25.49l-5.799-69.621a23.478 23.478 0 0 0-3.683-10.826 23.53 23.53 0 0 0-4.371-7.588l-40.155-46.633 8.046-24.948 4.247 9.722a19.137 19.137 0 0 0 5.014 6.801 19.148 19.148 0 0 0 7.912 4.821l62.369 19.541c10.145 3.179 20.946-2.469 24.125-12.614 3.18-10.145-2.467-20.948-12.613-24.126z"/></svg>